<svg xmlns="http://www.w3.org/2000/svg" width="540" height="720" viewBox="0 0 540 720"><defs><linearGradient id="bg" x1="0" y1="0" x2="1" y2="1"><stop stop-color="#5b1714"/><stop offset=".55" stop-color="#e04c34"/><stop offset="1" stop-color="#080a0f"/></linearGradient><linearGradient id="m"><stop stop-color="#fff0e6"/><stop offset=".45" stop-color="#ff9d76"/><stop offset="1" stop-color="#b07720"/></linearGradient><radialGradient id="g"><stop stop-color="#ff9d76" stop-opacity=".35"/><stop offset="1" stop-color="#ff9d76" stop-opacity="0"/></radialGradient><filter id="s" x="-40%" y="-40%" width="180%" height="180%"><feGaussianBlur stdDeviation="10" result="b"/><feMerge><feMergeNode in="b"/><feMergeNode in="SourceGraphic"/></feMerge></filter></defs><rect x="4" y="4" width="532" height="712" rx="42" fill="url(#bg)" stroke="#ff9d76" stroke-width="8"/><rect x="18" y="18" width="504" height="684" rx="32" fill="none" stroke="#fff0e6" stroke-opacity=".28"/><ellipse cx="270" cy="230" rx="230" ry="205" fill="url(#g)"/><g fill="#fff0e6" opacity=".7"><circle cx="72" cy="112" r="4"/><circle cx="455" cy="145" r="3"/><circle cx="95" cy="332" r="3"/><circle cx="436" cy="370" r="5"/><path d="M80 185h25M93 172v26M434 250h22M445 239v22" stroke="#fff0e6" stroke-width="3"/></g><text x="270" y="72" text-anchor="middle" fill="#fff0e6" font-size="22" font-weight="700" letter-spacing="8" font-family="Arial,'Microsoft YaHei'">燃 生 纪</text><rect x="177" y="92" width="186" height="42" rx="21" fill="#000" fill-opacity=".25" stroke="#ff9d76"/><text x="270" y="121" text-anchor="middle" fill="#fff0e6" font-size="20" font-weight="800" letter-spacing="4" font-family="Arial,'Microsoft YaHei'">惊喜奖池</text><g transform="translate(270 260)" fill="none" stroke="url(#m)" stroke-width="10" stroke-linejoin="round" filter="url(#s)"><path d="M-116 3h232v132h-232z"/><path d="M-116 3c0-55 44-93 116-93S116-52 116 3"/><path d="M-28-90v225M28-90v225"/><rect x="-25" y="35" width="50" height="58" rx="10"/><path d="M-116 63h232"/></g><text x="270" y="510" text-anchor="middle" fill="#fff0e6" font-size="112" font-weight="1000" font-family="Impact,Arial Black">100</text><text x="270" y="560" text-anchor="middle" fill="#ff9d76" font-size="38" font-weight="900" font-family="Arial,'Microsoft YaHei'">元</text><path d="M110 592h320" stroke="#ff9d76" stroke-opacity=".42"/><text x="270" y="636" text-anchor="middle" fill="#fff0e6" font-size="30" font-weight="900" letter-spacing="4" font-family="Arial,'Microsoft YaHei'">宝箱奖励</text><text x="270" y="675" text-anchor="middle" fill="#fff0e6" opacity=".6" font-size="15" letter-spacing="5" font-family="Arial">GOOD LUCK · BONUS</text></svg>