<svg xmlns="http://www.w3.org/2000/svg" width="540" height="720" viewBox="0 0 540 720"><defs><linearGradient id="bg" x1="0" y1="0" x2="1" y2="1"><stop stop-color="#3a1b61"/><stop offset=".55" stop-color="#8750db"/><stop offset="1" stop-color="#080a0f"/></linearGradient><linearGradient id="m"><stop stop-color="#f6e9ff"/><stop offset=".45" stop-color="#dda0ff"/><stop offset="1" stop-color="#b07720"/></linearGradient><radialGradient id="g"><stop stop-color="#dda0ff" stop-opacity=".35"/><stop offset="1" stop-color="#dda0ff" stop-opacity="0"/></radialGradient><filter id="s" x="-40%" y="-40%" width="180%" height="180%"><feGaussianBlur stdDeviation="10" result="b"/><feMerge><feMergeNode in="b"/><feMergeNode in="SourceGraphic"/></feMerge></filter></defs><rect x="4" y="4" width="532" height="712" rx="42" fill="url(#bg)" stroke="#dda0ff" stroke-width="8"/><rect x="18" y="18" width="504" height="684" rx="32" fill="none" stroke="#f6e9ff" stroke-opacity=".28"/><ellipse cx="270" cy="230" rx="230" ry="205" fill="url(#g)"/><g fill="#f6e9ff" opacity=".7"><circle cx="72" cy="112" r="4"/><circle cx="455" cy="145" r="3"/><circle cx="95" cy="332" r="3"/><circle cx="436" cy="370" r="5"/><path d="M80 185h25M93 172v26M434 250h22M445 239v22" stroke="#f6e9ff" stroke-width="3"/></g><text x="270" y="72" text-anchor="middle" fill="#f6e9ff" font-size="22" font-weight="700" letter-spacing="8" font-family="Arial,'Microsoft YaHei'">燃 生 纪</text><rect x="177" y="92" width="186" height="42" rx="21" fill="#000" fill-opacity=".25" stroke="#dda0ff"/><text x="270" y="121" text-anchor="middle" fill="#f6e9ff" font-size="20" font-weight="800" letter-spacing="4" font-family="Arial,'Microsoft YaHei'">惊喜奖池</text><g transform="translate(270 260)" fill="none" stroke="url(#m)" stroke-width="10" filter="url(#s)"><path d="M-122-58h244v56c-25 0-25 42 0 42v56h-244V40c25 0 25-42 0-42z"/><path d="M-58-38v114" stroke-dasharray="12 12"/><path d="M16 10l18 18 37-45"/><circle cx="42" cy="26" r="49"/></g><text x="270" y="510" text-anchor="middle" fill="#f6e9ff" font-size="126" font-weight="1000" font-family="Impact,Arial Black">60</text><text x="270" y="560" text-anchor="middle" fill="#dda0ff" font-size="38" font-weight="900" font-family="Arial,'Microsoft YaHei'">元</text><path d="M110 592h320" stroke="#dda0ff" stroke-opacity=".42"/><text x="270" y="636" text-anchor="middle" fill="#f6e9ff" font-size="30" font-weight="900" letter-spacing="4" font-family="Arial,'Microsoft YaHei'">惊喜礼券</text><text x="270" y="675" text-anchor="middle" fill="#f6e9ff" opacity=".6" font-size="15" letter-spacing="5" font-family="Arial">GOOD LUCK · BONUS</text></svg>